<?xml version="1.0" standalone="no"?>
<!DOCTYPE svg PUBLIC "-//W3C//DTD SVG 1.1//EN" "http://www.w3.org/Graphics/SVG/1.1/DTD/svg11.dtd">
<svg xmlns="http://www.w3.org/2000/svg" fill="#E73845" x="0px" y="0px" width="1258" viewBox="0 0 1258 1258" height="1258">
<path opacity="1.000000" stroke="none" d=" M900.998169,376.165222 C910.661438,376.185730 919.829834,375.998749 928.987000,376.239105   C936.187012,376.428070 940.061462,382.543091 936.813416,388.120514   C935.271423,390.768402 932.850403,391.928558 929.784546,392.163055   C919.948975,392.915314 910.380798,394.619629 901.409363,399.151093   C885.764221,407.053589 875.479919,419.560394 868.924927,435.541229   C809.644958,580.064026 750.339111,724.576355 691.034851,869.089172   C685.583008,882.374268 676.738708,891.808411 662.590332,896.400330   C646.793640,901.527283 623.008484,894.065918 611.751282,878.987549   C600.222534,863.545349 594.652527,845.643860 592.203735,827.207214   C584.920898,772.376221 569.355408,719.928955 548.913391,668.793640   C535.260742,634.641663 518.041870,602.408081 495.356934,573.266479   C480.032257,553.580139 462.368896,536.112793 443.434723,520.042236   C416.969330,497.579559 402.509369,468.847473 397.297424,435.139771   C394.337891,415.999054 396.807556,396.938721 400.347900,378.039948   C400.950287,374.824097 401.725281,371.640594 402.710236,367.109528   C403.080627,406.225464 418.750244,437.214264 444.416840,463.892944   C463.965363,484.212372 487.142242,499.942169 510.002380,516.066772   C535.589233,534.114746 561.469177,551.746704 584.324646,573.355347   C617.053284,604.298523 637.716858,641.300964 643.258545,686.520996   C647.113159,717.974304 648.777039,749.533997 650.137085,781.142212   C650.219299,783.051636 649.565369,785.150146 651.058838,786.894836   C653.094666,786.290588 653.075928,784.333191 653.654358,782.924744   C686.898804,701.969055 720.089539,620.991333 753.296082,540.020020   C764.912231,511.695129 776.553894,483.380646 788.186462,455.062469   C794.231506,440.346680 794.606445,425.891846 785.742737,412.091980   C777.952026,399.962585 766.640503,393.446167 752.319580,392.185791   C749.671387,391.952728 746.984558,392.195374 744.324036,392.056091   C739.470276,391.802032 736.241760,388.697266 736.121338,384.324097   C736.011108,380.320740 739.028748,376.897278 743.584717,376.356018   C746.546936,376.004059 749.572998,376.140900 752.570435,376.140442   C801.879761,376.133240 851.189087,376.139069 900.998169,376.165222  z"/>
<path opacity="1.000000" stroke="none" d=" M528.077026,678.594116 C523.627563,673.591431 519.350037,668.114319 514.769409,662.903687   C498.996887,644.962097 478.663635,633.119446 458.464325,621.120972   C432.255219,605.552734 406.480865,589.449341 383.256287,569.436890   C350.157959,540.916199 331.423157,505.099304 325.898987,461.960693   C323.464691,442.951111 322.492279,423.882141 322.216125,404.144897   C324.652008,412.585449 326.621429,420.592072 329.266937,428.368683   C339.778381,459.267792 359.631409,483.454285 384.129333,504.324707   C404.539978,521.713013 426.124786,537.651245 446.246307,555.408997   C481.283783,586.330566 506.706451,623.824585 524.037903,667.015503   C525.519531,670.707825 526.758362,674.497437 528.077026,678.594116  z"/>
<path opacity="1.000000" stroke="none" d=" M503.210785,713.736938 C484.096649,701.492249 463.463745,694.298157 441.465820,691.125610   C404.023926,685.725769 376.585327,665.223328 355.566559,634.888245   C337.774323,609.209778 328.741913,580.463684 326.121368,549.538269   C325.898987,546.913757 326.091919,544.254028 326.091919,541.269714   C328.092834,541.910156 328.836456,543.662292 329.860291,544.991577   C346.254944,566.276672 363.700012,586.599365 383.811035,604.520508   C402.354309,621.044556 423.401276,633.759583 445.269928,645.265137   C468.029083,657.239136 490.128357,670.161621 508.088287,689.053528   C523.953308,705.741821 536.063049,724.863953 545.376892,745.903809   C532.234497,734.127197 518.546997,723.150085 503.210785,713.736938  z"/>
<path opacity="1.000000" stroke="none" d=" M527.987549,679.003784 C528.528870,678.985962 528.755554,679.286377 528.704956,679.805969   C528.693665,679.921631 528.530762,680.022644 528.437683,680.130371   C528.308777,679.882568 528.179810,679.634766 528.047485,679.166626   C528.044067,678.946350 528.007751,678.986084 527.987549,679.003784  z"/>
</svg>